<svg width="218" height="230" viewBox="0 0 218 230" fill="none" xmlns="http://www.w3.org/2000/svg">
<rect x="85" width="133" height="133" rx="40" fill="url(#paint0_linear_4038_29169)" fill-opacity="0.7"/>
<rect y="36" width="164" height="164" rx="60" fill="white"/>
<ellipse cx="82" cy="222" rx="82" ry="8" fill="#D9D9D9" fill-opacity="0.4"/>
<path d="M45.7241 145.158V82.4824H81.0679V97.2297H118.526V145.158H45.7241ZM49.6512 141.472H61.4325V130.411H49.6512V141.472ZM49.6512 126.724H61.4325V115.664H49.6512V126.724ZM49.6512 111.977H61.4325V100.917H49.6512V111.977ZM49.6512 97.2297H61.4325V86.1692H49.6512V97.2297ZM65.3595 141.472H77.1408V130.411H65.3595V141.472ZM65.3595 126.724H77.1408V115.664H65.3595V126.724ZM65.3595 111.977H77.1408V100.917H65.3595V111.977ZM65.3595 97.2297H77.1408V86.1692H65.3595V97.2297ZM81.0679 141.472H114.599V100.917H81.0679V111.977H90.4324V115.664H81.0679V126.724H90.4324V130.411H81.0679V141.472ZM99.797 115.664V111.977H103.724V115.664H99.797ZM99.797 130.411V126.724H103.724V130.411H99.797Z" fill="black"/>
<defs>
<linearGradient id="paint0_linear_4038_29169" x1="151.5" y1="0" x2="151.5" y2="133" gradientUnits="userSpaceOnUse">
<stop stop-color="#D9D9D9" stop-opacity="0.16"/>
<stop offset="1" stop-color="#D9D9D9"/>
</linearGradient>
</defs>
</svg>
