<svg width="218" height="230" viewBox="0 0 218 230" fill="none" xmlns="http://www.w3.org/2000/svg">
<rect x="85" width="133" height="133" rx="40" fill="url(#paint0_linear_4038_29168)" fill-opacity="0.7"/>
<rect y="36" width="164" height="164" rx="60" fill="white"/>
<ellipse cx="82" cy="222" rx="82" ry="8" fill="#D9D9D9" fill-opacity="0.4"/>
<path d="M61.25 144C59.7958 144 58.5573 143.489 57.5343 142.466C56.5114 141.443 56 140.204 56 138.75V97.25C56 95.7958 56.5114 94.5573 57.5343 93.5343C58.5573 92.5114 59.7958 92 61.25 92H102.75C104.204 92 105.443 92.5114 106.466 93.5343C107.489 94.5573 108 95.7958 108 97.25V138.75C108 140.204 107.489 141.443 106.466 142.466C105.443 143.489 104.204 144 102.75 144H61.25ZM77.125 140.75V119.625H59.25V138.75C59.25 139.333 59.4375 139.813 59.8125 140.188C60.1875 140.563 60.6666 140.75 61.25 140.75H77.125ZM80.375 140.75H102.75C103.333 140.75 103.813 140.563 104.188 140.188C104.563 139.813 104.75 139.333 104.75 138.75V119.625H80.375V140.75ZM59.25 116.375H104.75V97.25C104.75 96.6666 104.563 96.1875 104.188 95.8125C103.813 95.4375 103.333 95.25 102.75 95.25H61.25C60.6666 95.25 60.1875 95.4375 59.8125 95.8125C59.4375 96.1875 59.25 96.6666 59.25 97.25V116.375Z" fill="black"/>
<defs>
<linearGradient id="paint0_linear_4038_29168" x1="151.5" y1="0" x2="151.5" y2="133" gradientUnits="userSpaceOnUse">
<stop stop-color="#D9D9D9" stop-opacity="0.16"/>
<stop offset="1" stop-color="#D9D9D9"/>
</linearGradient>
</defs>
</svg>
