<svg width="218" height="230" viewBox="0 0 218 230" fill="none" xmlns="http://www.w3.org/2000/svg">
<rect x="85" width="133" height="133" rx="40" fill="url(#paint0_linear_4038_29164)" fill-opacity="0.7"/>
<rect y="36" width="164" height="164" rx="60" fill="white"/>
<ellipse cx="82" cy="222" rx="82" ry="8" fill="#D9D9D9" fill-opacity="0.4"/>
<path d="M69 107.625C69.7125 107.625 70.3281 107.366 70.8469 106.847C71.3656 106.328 71.625 105.713 71.625 105C71.625 104.287 71.3656 103.672 70.8469 103.153C70.3281 102.634 69.7125 102.375 69 102.375C68.2875 102.375 67.6719 102.634 67.1531 103.153C66.6344 103.672 66.375 104.287 66.375 105C66.375 105.713 66.6344 106.328 67.1531 106.847C67.6719 107.366 68.2875 107.625 69 107.625ZM69 120.625C69.7125 120.625 70.3281 120.366 70.8469 119.847C71.3656 119.328 71.625 118.713 71.625 118C71.625 117.287 71.3656 116.672 70.8469 116.153C70.3281 115.634 69.7125 115.375 69 115.375C68.2875 115.375 67.6719 115.634 67.1531 116.153C66.6344 116.672 66.375 117.287 66.375 118C66.375 118.713 66.6344 119.328 67.1531 119.847C67.6719 120.366 68.2875 120.625 69 120.625ZM69 133.625C69.7125 133.625 70.3281 133.366 70.8469 132.847C71.3656 132.328 71.625 131.713 71.625 131C71.625 130.287 71.3656 129.672 70.8469 129.153C70.3281 128.634 69.7125 128.375 69 128.375C68.2875 128.375 67.6719 128.634 67.1531 129.153C66.6344 129.672 66.375 130.287 66.375 131C66.375 131.713 66.6344 132.328 67.1531 132.847C67.6719 133.366 68.2875 133.625 69 133.625ZM61.25 144C59.7542 144 58.5052 143.499 57.5031 142.497C56.501 141.495 56 140.246 56 138.75V97.25C56 95.7542 56.501 94.5052 57.5031 93.5031C58.5052 92.501 59.7542 92 61.25 92H93.625L108 106.375V138.75C108 140.246 107.499 141.495 106.497 142.497C105.495 143.499 104.246 144 102.75 144H61.25ZM61.25 140.75H102.75C103.333 140.75 103.813 140.563 104.188 140.188C104.563 139.813 104.75 139.333 104.75 138.75V108.25H91.75V95.25H61.25C60.6666 95.25 60.1875 95.4375 59.8125 95.8125C59.4375 96.1875 59.25 96.6666 59.25 97.25V138.75C59.25 139.333 59.4375 139.813 59.8125 140.188C60.1875 140.563 60.6666 140.75 61.25 140.75Z" fill="black"/>
<defs>
<linearGradient id="paint0_linear_4038_29164" x1="151.5" y1="0" x2="151.5" y2="133" gradientUnits="userSpaceOnUse">
<stop stop-color="#D9D9D9" stop-opacity="0.16"/>
<stop offset="1" stop-color="#D9D9D9"/>
</linearGradient>
</defs>
</svg>
