<svg width="218" height="230" viewBox="0 0 218 230" fill="none" xmlns="http://www.w3.org/2000/svg">
<rect x="85" width="133" height="133" rx="40" fill="url(#paint0_linear_4038_29165)" fill-opacity="0.7"/>
<rect y="36" width="164" height="164" rx="60" fill="white"/>
<ellipse cx="82" cy="222" rx="82" ry="8" fill="#D9D9D9" fill-opacity="0.4"/>
<path d="M46.25 136.125V133.319C46.25 131.323 47.3167 129.667 49.45 128.35C51.5833 127.033 54.3291 126.375 57.6875 126.375C58.1833 126.375 58.7146 126.399 59.2813 126.447C59.8479 126.495 60.45 126.573 61.0875 126.681C60.5792 127.569 60.2083 128.479 59.975 129.412C59.7416 130.346 59.625 131.281 59.625 132.219V136.125H46.25ZM65.75 136.125V132.469C65.75 131.159 66.1302 129.962 66.8906 128.877C67.651 127.792 68.7729 126.854 70.2562 126.063C71.7396 125.271 73.4677 124.677 75.4406 124.281C77.4135 123.885 79.5916 123.688 81.975 123.688C84.4042 123.688 86.6052 123.885 88.5782 124.281C90.5511 124.677 92.2792 125.271 93.7625 126.063C95.2458 126.854 96.3646 127.792 97.1188 128.877C97.8729 129.962 98.25 131.159 98.25 132.469V136.125H65.75ZM104.375 136.125V132.237C104.375 131.201 104.261 130.224 104.034 129.307C103.807 128.39 103.467 127.515 103.012 126.681C103.692 126.573 104.301 126.495 104.841 126.447C105.38 126.399 105.892 126.375 106.375 126.375C109.733 126.375 112.469 127.03 114.581 128.341C116.694 129.651 117.75 131.31 117.75 133.319V136.125H104.375ZM69.0938 132.875H94.925V132.188C94.8 130.646 93.5364 129.385 91.1344 128.406C88.7323 127.427 85.6875 126.938 82 126.938C78.3125 126.938 75.2677 127.427 72.8656 128.406C70.4636 129.385 69.2063 130.646 69.0938 132.188V132.875ZM57.6709 123.312C56.3945 123.312 55.3073 122.86 54.4094 121.954C53.5114 121.048 53.0625 119.959 53.0625 118.687C53.0625 117.429 53.5153 116.354 54.4211 115.463C55.3268 114.571 56.4156 114.125 57.6875 114.125C58.9458 114.125 60.0312 114.571 60.9437 115.463C61.8562 116.354 62.3125 117.435 62.3125 118.706C62.3125 119.94 61.8677 121.016 60.978 121.934C60.0884 122.853 58.986 123.312 57.6709 123.312ZM106.375 123.312C105.129 123.312 104.047 122.853 103.128 121.934C102.209 121.016 101.75 119.94 101.75 118.706C101.75 117.435 102.209 116.354 103.128 115.463C104.047 114.571 105.133 114.125 106.387 114.125C107.679 114.125 108.771 114.571 109.663 115.463C110.554 116.354 111 117.429 111 118.687C111 119.959 110.557 121.048 109.67 121.954C108.784 122.86 107.685 123.312 106.375 123.312ZM82.022 121.25C80.049 121.25 78.3646 120.557 76.9688 119.172C75.5729 117.786 74.8749 116.104 74.8749 114.125C74.8749 112.106 75.5677 110.414 76.9531 109.048C78.3385 107.683 80.0208 107 82 107C84.0187 107 85.7109 107.681 87.0766 109.042C88.4422 110.403 89.1251 112.09 89.1251 114.103C89.1251 116.076 88.4443 117.76 87.0829 119.156C85.7215 120.552 84.0345 121.25 82.022 121.25ZM82.0313 118C83.0979 118 84.0052 117.616 84.7532 116.847C85.501 116.078 85.875 115.16 85.875 114.094C85.875 113.027 85.5036 112.12 84.761 111.372C84.0182 110.624 83.0979 110.25 82 110.25C80.9541 110.25 80.0469 110.621 79.2781 111.364C78.5094 112.107 78.125 113.027 78.125 114.125C78.125 115.171 78.5094 116.078 79.2781 116.847C80.0469 117.616 80.9646 118 82.0313 118Z" fill="black"/>
<defs>
<linearGradient id="paint0_linear_4038_29165" x1="151.5" y1="0" x2="151.5" y2="133" gradientUnits="userSpaceOnUse">
<stop stop-color="#D9D9D9" stop-opacity="0.16"/>
<stop offset="1" stop-color="#D9D9D9"/>
</linearGradient>
</defs>
</svg>
