<svg xmlns="http://www.w3.org/2000/svg" width="18" height="18" viewBox="0 0 18 18" fill="none">
   <path d="M4.72421 14.1377C4.29212 14.1377 3.88837 13.989 3.59796 13.7127C3.22962 13.3656 3.05254 12.8415 3.11629 12.2748L3.37837 9.9798C3.42796 9.54772 3.69004 8.97397 3.99462 8.6623L9.81004 2.50688C11.2621 0.969799 12.778 0.9273 14.315 2.37938C15.8521 3.83147 15.8946 5.3473 14.4425 6.88438L8.62712 13.0398C8.32962 13.3585 7.77712 13.656 7.34504 13.7269L5.06421 14.1165C4.94379 14.1235 4.83754 14.1377 4.72421 14.1377ZM12.0838 2.3723C11.5384 2.3723 11.0638 2.7123 10.5821 3.2223L4.76671 9.3848C4.62504 9.53355 4.46212 9.88772 4.43379 10.0931L4.17171 12.3881C4.14337 12.6219 4.20004 12.8131 4.32754 12.9335C4.45504 13.054 4.64629 13.0965 4.88004 13.061L7.16087 12.6715C7.36629 12.6361 7.70629 12.4519 7.84796 12.3031L13.6634 6.14772C14.5417 5.21272 14.8605 4.34855 13.5784 3.14438C13.0117 2.59897 12.523 2.3723 12.0838 2.3723Z" fill="#292D32"></path>
   <path d="M13.0824 8.06722C13.0683 8.06722 13.047 8.06722 13.0329 8.06722C10.8229 7.84764 9.04495 6.16889 8.70495 3.97305C8.66245 3.68264 8.86078 3.41347 9.1512 3.36389C9.44162 3.32139 9.71078 3.51972 9.76037 3.81014C10.0295 5.5243 11.4179 6.8418 13.1462 7.0118C13.4366 7.04014 13.6491 7.30222 13.6208 7.59264C13.5854 7.8618 13.3516 8.06722 13.0824 8.06722Z" fill="#292D32"></path>
   <path d="M15.6748 16.4255H2.9248C2.63439 16.4255 2.39355 16.1847 2.39355 15.8943C2.39355 15.6039 2.63439 15.363 2.9248 15.363H15.6748C15.9652 15.363 16.2061 15.6039 16.2061 15.8943C16.2061 16.1847 15.9652 16.4255 15.6748 16.4255Z" fill="#292D32"></path>
</svg>