<svg width="18" height="18" viewBox="0 0 18 18" fill="none" xmlns="http://www.w3.org/2000/svg">
<path d="M13.215 7.21484H9.2775C8.97 7.21484 8.715 6.95984 8.715 6.65234C8.715 6.34484 8.97 6.08984 9.2775 6.08984H13.215C13.5225 6.08984 13.7775 6.34484 13.7775 6.65234C13.7775 6.95984 13.53 7.21484 13.215 7.21484Z" fill="#292D32"/>
<path d="M5.34 7.78523C5.1975 7.78523 5.055 7.73273 4.9425 7.62023L4.38 7.05773C4.1625 6.84023 4.1625 6.48023 4.38 6.26273C4.5975 6.04523 4.9575 6.04523 5.175 6.26273L5.34 6.42773L6.63 5.13773C6.8475 4.92023 7.2075 4.92023 7.425 5.13773C7.6425 5.35523 7.6425 5.71523 7.425 5.93273L5.7375 7.62023C5.6325 7.72523 5.49 7.78523 5.34 7.78523Z" fill="#292D32"/>
<path d="M13.215 12.4648H9.2775C8.97 12.4648 8.715 12.2098 8.715 11.9023C8.715 11.5948 8.97 11.3398 9.2775 11.3398H13.215C13.5225 11.3398 13.7775 11.5948 13.7775 11.9023C13.7775 12.2098 13.53 12.4648 13.215 12.4648Z" fill="#292D32"/>
<path d="M5.34 13.0352C5.1975 13.0352 5.055 12.9827 4.9425 12.8702L4.38 12.3077C4.1625 12.0902 4.1625 11.7302 4.38 11.5127C4.5975 11.2952 4.9575 11.2952 5.175 11.5127L5.34 11.6777L6.63 10.3877C6.8475 10.1702 7.2075 10.1702 7.425 10.3877C7.6425 10.6052 7.6425 10.9652 7.425 11.1827L5.7375 12.8702C5.6325 12.9752 5.49 13.0352 5.34 13.0352Z" fill="#292D32"/>
<path d="M11.25 17.0625H6.75C2.6775 17.0625 0.9375 15.3225 0.9375 11.25V6.75C0.9375 2.6775 2.6775 0.9375 6.75 0.9375H11.25C15.3225 0.9375 17.0625 2.6775 17.0625 6.75V11.25C17.0625 15.3225 15.3225 17.0625 11.25 17.0625ZM6.75 2.0625C3.2925 2.0625 2.0625 3.2925 2.0625 6.75V11.25C2.0625 14.7075 3.2925 15.9375 6.75 15.9375H11.25C14.7075 15.9375 15.9375 14.7075 15.9375 11.25V6.75C15.9375 3.2925 14.7075 2.0625 11.25 2.0625H6.75Z" fill="#292D32"/>
</svg>
