<svg width="20" height="20" viewBox="0 0 20 20" fill="none" xmlns="http://www.w3.org/2000/svg">
<path d="M17.5 16.875H9.16663C8.82496 16.875 8.54163 16.5917 8.54163 16.25C8.54163 15.9083 8.82496 15.625 9.16663 15.625H17.5C17.8416 15.625 18.125 15.9083 18.125 16.25C18.125 16.5917 17.8416 16.875 17.5 16.875Z" fill="black"/>
<path d="M17.5 11.042H9.16663C8.82496 11.042 8.54163 10.7587 8.54163 10.417C8.54163 10.0753 8.82496 9.79199 9.16663 9.79199H17.5C17.8416 9.79199 18.125 10.0753 18.125 10.417C18.125 10.7587 17.8416 11.042 17.5 11.042Z" fill="black"/>
<path d="M17.5 5.20801H9.16663C8.82496 5.20801 8.54163 4.92467 8.54163 4.58301C8.54163 4.24134 8.82496 3.95801 9.16663 3.95801H17.5C17.8416 3.95801 18.125 4.24134 18.125 4.58301C18.125 4.92467 17.8416 5.20801 17.5 5.20801Z" fill="black"/>
<path d="M3.33333 6.04186C3.17499 6.04186 3.01666 5.98353 2.89166 5.85853L2.05833 5.0252C1.81666 4.78353 1.81666 4.38353 2.05833 4.14186C2.29999 3.9002 2.69999 3.9002 2.94166 4.14186L3.33333 4.53353L5.39166 2.4752C5.63332 2.23353 6.03333 2.23353 6.27499 2.4752C6.51666 2.71686 6.51666 3.11686 6.27499 3.35853L3.77499 5.85853C3.64999 5.98353 3.49166 6.04186 3.33333 6.04186Z" fill="black"/>
<path d="M3.33333 11.8749C3.17499 11.8749 3.01666 11.8165 2.89166 11.6915L2.05833 10.8582C1.81666 10.6165 1.81666 10.2165 2.05833 9.97487C2.29999 9.7332 2.69999 9.7332 2.94166 9.97487L3.33333 10.3665L5.39166 8.3082C5.63332 8.06654 6.03333 8.06654 6.27499 8.3082C6.51666 8.54987 6.51666 8.94987 6.27499 9.19154L3.77499 11.6915C3.64999 11.8165 3.49166 11.8749 3.33333 11.8749Z" fill="black"/>
<path d="M3.33333 17.7079C3.17499 17.7079 3.01666 17.6495 2.89166 17.5245L2.05833 16.6912C1.81666 16.4495 1.81666 16.0495 2.05833 15.8079C2.29999 15.5662 2.69999 15.5662 2.94166 15.8079L3.33333 16.1995L5.39166 14.1412C5.63332 13.8995 6.03333 13.8995 6.27499 14.1412C6.51666 14.3829 6.51666 14.7829 6.27499 15.0245L3.77499 17.5245C3.64999 17.6495 3.49166 17.7079 3.33333 17.7079Z" fill="black"/>
</svg>
