<svg width="20" height="20" viewBox="0 0 20 20" fill="none" xmlns="http://www.w3.org/2000/svg">
<path d="M15 7C15 6.48813 14.8047 5.97627 14.4143 5.58573C14.0237 5.1952 13.5119 5 13 5M13 13C16.3137 13 19 10.3137 19 7C19 3.68627 16.3137 1 13 1C9.68627 1 7 3.68627 7 7C7 7.27373 7.01827 7.54307 7.05387 7.80707C7.11213 8.2412 7.14133 8.45827 7.12173 8.5956C7.1012 8.73867 7.0752 8.81573 7.00467 8.94187C6.93693 9.06307 6.81773 9.18227 6.57907 9.42093L1.46863 14.5313C1.29568 14.7043 1.2092 14.7908 1.14736 14.8917C1.09253 14.9812 1.05213 15.0787 1.02763 15.1808C0.999999 15.2959 1 15.4181 1 15.6628V17.4C1 17.96 1 18.2401 1.109 18.454C1.20487 18.6421 1.35785 18.7951 1.54601 18.8911C1.75992 19 2.03995 19 2.6 19H5V17H7V15H9L10.5791 13.4209C10.8177 13.1823 10.9369 13.0631 11.0581 12.9953C11.1843 12.9248 11.2613 12.8988 11.4044 12.8783C11.5417 12.8587 11.7588 12.8879 12.1929 12.9461C12.4569 12.9817 12.7263 13 13 13Z" stroke="black" stroke-width="1.2" stroke-linecap="round" stroke-linejoin="round"/>
</svg>
