<svg width="25" height="26" viewBox="0 0 25 26" fill="none" xmlns="http://www.w3.org/2000/svg">
<g clip-path="url(#clip0_3640_28385)">
<path d="M25 13C25 6.09644 19.4036 0.5 12.5 0.5C5.59644 0.5 0 6.09644 0 13C0 19.9036 5.59644 25.5 12.5 25.5C19.4036 25.5 25 19.9036 25 13Z" fill="#F3F3F3"/>
<path d="M14.2344 11.0469C14.2344 10.747 14.1199 10.447 13.8912 10.2182C13.6623 9.98937 13.3624 9.875 13.0625 9.875M13.0625 14.5625C15.0041 14.5625 16.5781 12.9885 16.5781 11.0469C16.5781 9.10523 15.0041 7.53125 13.0625 7.53125C11.1209 7.53125 9.54688 9.10523 9.54688 11.0469C9.54688 11.2073 9.55758 11.3651 9.57844 11.5198C9.61258 11.7741 9.62969 11.9013 9.6182 11.9818C9.60617 12.0656 9.59094 12.1108 9.54961 12.1847C9.50992 12.2557 9.44008 12.3255 9.30023 12.4654L6.30584 15.4598C6.2045 15.5611 6.15383 15.6118 6.11759 15.6709C6.08547 15.7234 6.0618 15.7805 6.04744 15.8403C6.03125 15.9077 6.03125 15.9794 6.03125 16.1227V17.1406C6.03125 17.4687 6.03125 17.6329 6.09512 17.7582C6.15129 17.8684 6.24093 17.958 6.35118 18.0143C6.47652 18.0781 6.64059 18.0781 6.96875 18.0781H8.375V16.9062H9.54688V15.7344H10.7188L11.644 14.8091C11.7838 14.6693 11.8537 14.5995 11.9247 14.5598C11.9986 14.5184 12.0438 14.5032 12.1276 14.4912C12.208 14.4797 12.3352 14.4968 12.5896 14.5309C12.7443 14.5518 12.9021 14.5625 13.0625 14.5625Z" stroke="black" stroke-width="0.8" stroke-linecap="round" stroke-linejoin="round"/>
</g>
<defs>
<clipPath id="clip0_3640_28385">
<rect width="25" height="25" fill="white" transform="translate(0 0.5)"/>
</clipPath>
</defs>
</svg>
