<svg width="18" height="28" viewBox="0 0 18 28" fill="none" xmlns="http://www.w3.org/2000/svg">
<rect width="18" height="28" rx="9" fill="white"/>
<path d="M5.8125 18.875C3.1275 18.875 0.9375 16.685 0.9375 14C0.9375 11.315 3.1275 9.125 5.8125 9.125C6.12 9.125 6.375 9.38 6.375 9.6875C6.375 9.995 6.12 10.25 5.8125 10.25C3.7425 10.25 2.0625 11.93 2.0625 14C2.0625 16.07 3.7425 17.75 5.8125 17.75C7.8825 17.75 9.5625 16.07 9.5625 14C9.5625 13.6925 9.8175 13.4375 10.125 13.4375C10.4325 13.4375 10.6875 13.6925 10.6875 14C10.6875 16.685 8.4975 18.875 5.8125 18.875Z" fill="#292D32"/>
<path d="M12 19.0625C11.6925 19.0625 11.4375 18.8075 11.4375 18.5C11.4375 18.1925 11.6925 17.9375 12 17.9375C14.1675 17.9375 15.9375 16.1675 15.9375 14C15.9375 11.8325 14.1675 10.0625 12 10.0625C9.8325 10.0625 8.0625 11.8325 8.0625 14C8.0625 14.3075 7.8075 14.5625 7.5 14.5625C7.1925 14.5625 6.9375 14.3075 6.9375 14C6.9375 11.21 9.21 8.9375 12 8.9375C14.79 8.9375 17.0625 11.21 17.0625 14C17.0625 16.79 14.79 19.0625 12 19.0625Z" fill="#292D32"/>
</svg>
