<svg width="25" height="25" viewBox="0 0 25 25" fill="none" xmlns="http://www.w3.org/2000/svg">
<g clip-path="url(#clip0_3640_28375)">
<path d="M25 12.5C25 5.59644 19.4036 0 12.5 0C5.59644 0 0 5.59644 0 12.5C0 19.4036 5.59644 25 12.5 25C19.4036 25 25 19.4036 25 12.5Z" fill="#F3F3F3"/>
<path d="M19.5312 12.5H16.7188M8.28125 12.5H5.46875M12.5 8.28125V5.46875M12.5 19.5312V16.7188M18.125 12.5C18.125 15.6066 15.6066 18.125 12.5 18.125C9.39336 18.125 6.875 15.6066 6.875 12.5C6.875 9.39336 9.39336 6.875 12.5 6.875C15.6066 6.875 18.125 9.39336 18.125 12.5ZM14.6094 12.5C14.6094 13.665 13.665 14.6094 12.5 14.6094C11.335 14.6094 10.3906 13.665 10.3906 12.5C10.3906 11.335 11.335 10.3906 12.5 10.3906C13.665 10.3906 14.6094 11.335 14.6094 12.5Z" stroke="black" stroke-width="0.8" stroke-linecap="round" stroke-linejoin="round"/>
</g>
<defs>
<clipPath id="clip0_3640_28375">
<rect width="25" height="25" fill="white"/>
</clipPath>
</defs>
</svg>
