<svg width="15" height="16" viewBox="0 0 15 16" fill="none" xmlns="http://www.w3.org/2000/svg">
<path d="M5 4.09375C4.74375 4.09375 4.53125 3.88125 4.53125 3.625V1.75C4.53125 1.49375 4.74375 1.28125 5 1.28125C5.25625 1.28125 5.46875 1.49375 5.46875 1.75V3.625C5.46875 3.88125 5.25625 4.09375 5 4.09375Z" fill="#787878"/>
<path d="M10 4.09375C9.74375 4.09375 9.53125 3.88125 9.53125 3.625V1.75C9.53125 1.49375 9.74375 1.28125 10 1.28125C10.2563 1.28125 10.4688 1.49375 10.4688 1.75V3.625C10.4688 3.88125 10.2563 4.09375 10 4.09375Z" fill="#787878"/>
<path d="M10 14.7188H5C2.71875 14.7188 1.40625 13.4063 1.40625 11.125V5.8125C1.40625 3.53125 2.71875 2.21875 5 2.21875H10C12.2812 2.21875 13.5938 3.53125 13.5938 5.8125V11.125C13.5938 13.4063 12.2812 14.7188 10 14.7188ZM5 3.15625C3.2125 3.15625 2.34375 4.025 2.34375 5.8125V11.125C2.34375 12.9125 3.2125 13.7813 5 13.7813H10C11.7875 13.7813 12.6562 12.9125 12.6562 11.125V5.8125C12.6562 4.025 11.7875 3.15625 10 3.15625H5Z" fill="#787878"/>
<path d="M10 7.84375H5C4.74375 7.84375 4.53125 7.63125 4.53125 7.375C4.53125 7.11875 4.74375 6.90625 5 6.90625H10C10.2562 6.90625 10.4687 7.11875 10.4687 7.375C10.4687 7.63125 10.2562 7.84375 10 7.84375Z" fill="#787878"/>
<path d="M7.5 10.9688H5C4.74375 10.9688 4.53125 10.7563 4.53125 10.5C4.53125 10.2438 4.74375 10.0312 5 10.0312H7.5C7.75625 10.0312 7.96875 10.2438 7.96875 10.5C7.96875 10.7563 7.75625 10.9688 7.5 10.9688Z" fill="#787878"/>
</svg>
