<svg width="16" height="17" viewBox="0 0 16 17" fill="none" xmlns="http://www.w3.org/2000/svg">
<path d="M13.9999 14H7.33325C7.05992 14 6.83325 13.7733 6.83325 13.5C6.83325 13.2267 7.05992 13 7.33325 13H13.9999C14.2733 13 14.4999 13.2267 14.4999 13.5C14.4999 13.7733 14.2733 14 13.9999 14Z" fill="#787878"/>
<path d="M13.9999 9.33301H7.33325C7.05992 9.33301 6.83325 9.10634 6.83325 8.83301C6.83325 8.55967 7.05992 8.33301 7.33325 8.33301H13.9999C14.2733 8.33301 14.4999 8.55967 14.4999 8.83301C14.4999 9.10634 14.2733 9.33301 13.9999 9.33301Z" fill="#787878"/>
<path d="M13.9999 4.66699H7.33325C7.05992 4.66699 6.83325 4.44033 6.83325 4.16699C6.83325 3.89366 7.05992 3.66699 7.33325 3.66699H13.9999C14.2733 3.66699 14.4999 3.89366 14.4999 4.16699C14.4999 4.44033 14.2733 4.66699 13.9999 4.66699Z" fill="#787878"/>
<path d="M2.66671 5.33329C2.54004 5.33329 2.41338 5.28663 2.31338 5.18663L1.64671 4.51996C1.45338 4.32663 1.45338 4.00663 1.64671 3.81329C1.84004 3.61996 2.16004 3.61996 2.35338 3.81329L2.66671 4.12663L4.31338 2.47996C4.50671 2.28663 4.82671 2.28663 5.02004 2.47996C5.21338 2.67329 5.21338 2.99329 5.02004 3.18663L3.02004 5.18663C2.92004 5.28663 2.79338 5.33329 2.66671 5.33329Z" fill="#787878"/>
<path d="M2.66671 10.0003C2.54004 10.0003 2.41338 9.95362 2.31338 9.85362L1.64671 9.18695C1.45338 8.99362 1.45338 8.67362 1.64671 8.48029C1.84004 8.28695 2.16004 8.28695 2.35338 8.48029L2.66671 8.79362L4.31338 7.14695C4.50671 6.95362 4.82671 6.95362 5.02004 7.14695C5.21338 7.34029 5.21338 7.66029 5.02004 7.85362L3.02004 9.85362C2.92004 9.95362 2.79338 10.0003 2.66671 10.0003Z" fill="#787878"/>
<path d="M2.66671 14.6663C2.54004 14.6663 2.41338 14.6196 2.31338 14.5196L1.64671 13.853C1.45338 13.6596 1.45338 13.3396 1.64671 13.1463C1.84004 12.953 2.16004 12.953 2.35338 13.1463L2.66671 13.4596L4.31338 11.813C4.50671 11.6196 4.82671 11.6196 5.02004 11.813C5.21338 12.0063 5.21338 12.3263 5.02004 12.5196L3.02004 14.5196C2.92004 14.6196 2.79338 14.6663 2.66671 14.6663Z" fill="#787878"/>
</svg>
