<svg width="15" height="16" viewBox="0 0 15 16" fill="none" xmlns="http://www.w3.org/2000/svg">
<path d="M13.125 4.70605C13.1125 4.70605 13.0938 4.70605 13.075 4.70605C9.76879 4.3748 6.46879 4.2498 3.20004 4.58105L1.92504 4.70605C1.66254 4.73105 1.43129 4.54355 1.40629 4.28105C1.38129 4.01855 1.56879 3.79355 1.82504 3.76855L3.10004 3.64355C6.42504 3.30605 9.79379 3.4373 13.1688 3.76855C13.425 3.79355 13.6125 4.0248 13.5875 4.28105C13.5688 4.5248 13.3625 4.70605 13.125 4.70605Z" fill="#292D32"/>
<path d="M5.31248 4.075C5.28748 4.075 5.26248 4.075 5.23123 4.06875C4.98123 4.025 4.80623 3.78125 4.84998 3.53125L4.98748 2.7125C5.08748 2.1125 5.22498 1.28125 6.68123 1.28125H8.31873C9.78123 1.28125 9.91873 2.14375 10.0125 2.71875L10.15 3.53125C10.1937 3.7875 10.0187 4.03125 9.76873 4.06875C9.51248 4.1125 9.26873 3.9375 9.23123 3.6875L9.09373 2.875C9.00623 2.33125 8.98748 2.225 8.32498 2.225H6.68748C6.02498 2.225 6.01248 2.3125 5.91873 2.86875L5.77498 3.68125C5.73748 3.9125 5.53748 4.075 5.31248 4.075Z" fill="#292D32"/>
<path d="M9.50625 14.7187H5.49375C3.3125 14.7187 3.225 13.5125 3.15625 12.5375L2.75 6.24374C2.73125 5.98749 2.93125 5.76249 3.1875 5.74374C3.45 5.73124 3.66875 5.92499 3.6875 6.18124L4.09375 12.475C4.1625 13.425 4.1875 13.7812 5.49375 13.7812H9.50625C10.8187 13.7812 10.8437 13.425 10.9062 12.475L11.3125 6.18124C11.3312 5.92499 11.5562 5.73124 11.8125 5.74374C12.0687 5.76249 12.2687 5.98124 12.25 6.24374L11.8437 12.5375C11.775 13.5125 11.6875 14.7187 9.50625 14.7187Z" fill="#292D32"/>
<path d="M8.53743 11.2812H6.45618C6.19993 11.2812 5.98743 11.0687 5.98743 10.8125C5.98743 10.5562 6.19993 10.3438 6.45618 10.3438H8.53743C8.79368 10.3438 9.00618 10.5562 9.00618 10.8125C9.00618 11.0687 8.79368 11.2812 8.53743 11.2812Z" fill="#292D32"/>
<path d="M9.0625 8.78125H5.9375C5.68125 8.78125 5.46875 8.56875 5.46875 8.3125C5.46875 8.05625 5.68125 7.84375 5.9375 7.84375H9.0625C9.31875 7.84375 9.53125 8.05625 9.53125 8.3125C9.53125 8.56875 9.31875 8.78125 9.0625 8.78125Z" fill="#292D32"/>
</svg>
